<?xml version="1.0" standalone="no"?>
<!DOCTYPE svg PUBLIC "-//W3C//DTD SVG 20010904//EN"
 "http://www.w3.org/TR/2001/REC-SVG-20010904/DTD/svg10.dtd">
<svg version="1.0" xmlns="http://www.w3.org/2000/svg"
 width="512.000000pt" height="512.000000pt" viewBox="0 0 512.000000 512.000000"
 preserveAspectRatio="xMidYMid meet">

<g transform="translate(0.000000,512.000000) scale(0.100000,-0.100000)"
fill="#000000" stroke="none">
<path d="M323 5100 c-82 -49 -82 -166 0 -215 30 -19 55 -20 368 -23 l337 -3 4
-112 c3 -96 8 -120 31 -168 42 -88 98 -143 185 -186 l76 -38 237 -3 238 -4 3
-386 3 -387 26 -72 c52 -142 159 -270 286 -343 l61 -35 4 -265 c3 -264 3 -265
30 -323 35 -74 114 -157 178 -187 l50 -23 0 -95 c0 -70 4 -101 17 -122 40 -69
138 -79 197 -21 30 30 31 34 34 135 l4 103 44 21 c57 28 126 92 158 147 48 81
56 139 56 395 l1 235 62 35 c84 48 193 159 240 247 71 135 77 179 77 585 l0
358 205 0 c113 0 228 5 257 11 121 26 218 103 271 216 27 59 31 80 35 175 l5
108 316 0 c185 0 331 4 353 10 44 13 85 58 94 105 8 47 -22 105 -67 127 -32
17 -159 18 -2239 18 -2169 0 -2206 0 -2237 -20z m3517 -321 c0 -90 -14 -125
-60 -153 -26 -15 -134 -16 -1215 -16 -1292 0 -1221 -3 -1260 56 -12 18 -19 55
-23 110 l-5 84 1282 0 1281 0 0 -81z m-762 -786 c-4 -309 -6 -364 -21 -403
-48 -122 -144 -214 -259 -245 -52 -14 -98 -16 -263 -13 -195 3 -201 4 -256 31
-88 43 -143 98 -186 185 l-38 76 -3 363 -3 363 516 0 517 0 -4 -357z m-388
-1128 c0 -229 -5 -250 -63 -285 -56 -34 -122 -20 -166 36 -20 25 -21 39 -21
240 l0 214 125 0 125 0 0 -205z"/>
<path d="M2498 1773 c-55 -35 -60 -59 -56 -273 3 -187 4 -197 30 -252 53 -113
167 -197 295 -218 32 -6 324 -10 654 -10 590 0 597 0 623 -21 75 -59 72 -161
-7 -209 -31 -20 -63 -20 -1724 -20 -1215 0 -1707 -3 -1745 -11 -120 -26 -218
-103 -269 -214 -81 -171 -26 -370 131 -477 107 -73 -57 -68 2255 -68 1960 0
2082 1 2114 18 45 22 75 80 67 127 -9 47 -50 92 -94 105 -25 6 -724 10 -2100
10 -1824 0 -2066 2 -2092 15 -76 39 -80 167 -6 216 18 12 280 15 1751 19
l1730 5 58 23 c75 31 165 114 200 185 96 197 16 427 -183 521 l-65 31 -645 5
c-478 4 -650 8 -666 17 -52 30 -59 56 -64 245 l-5 178 -32 31 c-39 40 -112 50
-155 22z"/>
</g>
</svg>
